{
    "asset" : {
        "generator" : "Khronos glTF Blender I/O v3.2.40",
        "version" : "2.0"
    },
    "scene" : 0,
    "scenes" : [
        {
            "name" : "Scene",
            "nodes" : [
                0,
                1,
                2,
                3
            ]
        }
    ],
    "nodes" : [
        {
            "mesh" : 0,
            "name" : "Cylinder",
            "rotation" : [
                0.7071068286895752,
                0,
                0,
                0.7071068286895752
            ],
            "scale" : [
                2,
                2,
                2
            ]
        },
        {
            "mesh" : 1,
            "name" : "Cube",
            "scale" : [
                2,
                2,
                2
            ]
        },
        {
            "mesh" : 2,
            "name" : "Cylinder.002",
            "scale" : [
                2,
                2,
                2
            ]
        },
        {
            "mesh" : 3,
            "name" : "Cube.001",
            "scale" : [
                2,
                2,
                2
            ]
        }
    ],
    "materials" : [
        {
            "doubleSided" : true,
            "name" : "ship_material",
            "pbrMetallicRoughness" : {
                "baseColorFactor" : [
                    0.3185385465621948,
                    0.3185385465621948,
                    0.3185385465621948,
                    1
                ],
                "metallicFactor" : 0,
                "roughnessFactor" : 0.5
            }
        }
    ],
    "meshes" : [
        {
            "name" : "Cylinder",
            "primitives" : [
                {
                    "attributes" : {
                        "POSITION" : 0,
                        "NORMAL" : 1,
                        "TANGENT" : 2,
                        "TEXCOORD_0" : 3
                    },
                    "indices" : 4,
                    "material" : 0
                }
            ]
        },
        {
            "name" : "Cube.001",
            "primitives" : [
                {
                    "attributes" : {
                        "POSITION" : 5,
                        "NORMAL" : 6,
                        "TANGENT" : 7,
                        "TEXCOORD_0" : 8
                    },
                    "indices" : 9,
                    "material" : 0
                }
            ]
        },
        {
            "name" : "Cylinder.002",
            "primitives" : [
                {
                    "attributes" : {
                        "POSITION" : 10,
                        "NORMAL" : 11,
                        "TANGENT" : 12,
                        "TEXCOORD_0" : 13
                    },
                    "indices" : 14,
                    "material" : 0
                }
            ]
        },
        {
            "name" : "Cube.002",
            "primitives" : [
                {
                    "attributes" : {
                        "POSITION" : 15,
                        "NORMAL" : 16,
                        "TANGENT" : 17,
                        "TEXCOORD_0" : 18
                    },
                    "indices" : 19,
                    "material" : 0
                }
            ]
        }
    ],
    "accessors" : [
        {
            "bufferView" : 0,
            "componentType" : 5126,
            "count" : 2482,
            "max" : [
                2.259599208831787,
                1,
                0.5068594217300415
            ],
            "min" : [
                -2.259599208831787,
                -1,
                -0.5068594217300415
            ],
            "type" : "VEC3"
        },
        {
            "bufferView" : 1,
            "componentType" : 5126,
            "count" : 2482,
            "type" : "VEC3"
        },
        {
            "bufferView" : 2,
            "componentType" : 5126,
            "count" : 2482,
            "type" : "VEC4"
        },
        {
            "bufferView" : 3,
            "componentType" : 5126,
            "count" : 2482,
            "type" : "VEC2"
        },
        {
            "bufferView" : 4,
            "componentType" : 5123,
            "count" : 9192,
            "type" : "SCALAR"
        },
        {
            "bufferView" : 5,
            "componentType" : 5126,
            "count" : 891,
            "max" : [
                1,
                1,
                1.9754092693328857
            ],
            "min" : [
                -1,
                -0.7932332158088684,
                -1.6277813911437988
            ],
            "type" : "VEC3"
        },
        {
            "bufferView" : 6,
            "componentType" : 5126,
            "count" : 891,
            "type" : "VEC3"
        },
        {
            "bufferView" : 7,
            "componentType" : 5126,
            "count" : 891,
            "type" : "VEC4"
        },
        {
            "bufferView" : 8,
            "componentType" : 5126,
            "count" : 891,
            "type" : "VEC2"
        },
        {
            "bufferView" : 9,
            "componentType" : 5123,
            "count" : 3126,
            "type" : "SCALAR"
        },
        {
            "bufferView" : 10,
            "componentType" : 5126,
            "count" : 3170,
            "max" : [
                2.7742984294891357,
                0.4558872580528259,
                0.19655638933181763
            ],
            "min" : [
                -2.7742984294891357,
                -0.4558872580528259,
                -0.19655635952949524
            ],
            "type" : "VEC3"
        },
        {
            "bufferView" : 11,
            "componentType" : 5126,
            "count" : 3170,
            "type" : "VEC3"
        },
        {
            "bufferView" : 12,
            "componentType" : 5126,
            "count" : 3170,
            "type" : "VEC4"
        },
        {
            "bufferView" : 13,
            "componentType" : 5126,
            "count" : 3170,
            "type" : "VEC2"
        },
        {
            "bufferView" : 14,
            "componentType" : 5123,
            "count" : 9192,
            "type" : "SCALAR"
        },
        {
            "bufferView" : 15,
            "componentType" : 5126,
            "count" : 234,
            "max" : [
                2.8759796619415283,
                0.0186159610748291,
                0.7379062175750732
            ],
            "min" : [
                -2.8759796619415283,
                -0.0186159610748291,
                -0.7379062175750732
            ],
            "type" : "VEC3"
        },
        {
            "bufferView" : 16,
            "componentType" : 5126,
            "count" : 234,
            "type" : "VEC3"
        },
        {
            "bufferView" : 17,
            "componentType" : 5126,
            "count" : 234,
            "type" : "VEC4"
        },
        {
            "bufferView" : 18,
            "componentType" : 5126,
            "count" : 234,
            "type" : "VEC2"
        },
        {
            "bufferView" : 19,
            "componentType" : 5123,
            "count" : 852,
            "type" : "SCALAR"
        }
    ],
    "bufferViews" : [
        {
            "buffer" : 0,
            "byteLength" : 29784,
            "byteOffset" : 0
        },
        {
            "buffer" : 0,
            "byteLength" : 29784,
            "byteOffset" : 29784
        },
        {
            "buffer" : 0,
            "byteLength" : 39712,
            "byteOffset" : 59568
        },
        {
            "buffer" : 0,
            "byteLength" : 19856,
            "byteOffset" : 99280
        },
        {
            "buffer" : 0,
            "byteLength" : 18384,
            "byteOffset" : 119136
        },
        {
            "buffer" : 0,
            "byteLength" : 10692,
            "byteOffset" : 137520
        },
        {
            "buffer" : 0,
            "byteLength" : 10692,
            "byteOffset" : 148212
        },
        {
            "buffer" : 0,
            "byteLength" : 14256,
            "byteOffset" : 158904
        },
        {
            "buffer" : 0,
            "byteLength" : 7128,
            "byteOffset" : 173160
        },
        {
            "buffer" : 0,
            "byteLength" : 6252,
            "byteOffset" : 180288
        },
        {
            "buffer" : 0,
            "byteLength" : 38040,
            "byteOffset" : 186540
        },
        {
            "buffer" : 0,
            "byteLength" : 38040,
            "byteOffset" : 224580
        },
        {
            "buffer" : 0,
            "byteLength" : 50720,
            "byteOffset" : 262620
        },
        {
            "buffer" : 0,
            "byteLength" : 25360,
            "byteOffset" : 313340
        },
        {
            "buffer" : 0,
            "byteLength" : 18384,
            "byteOffset" : 338700
        },
        {
            "buffer" : 0,
            "byteLength" : 2808,
            "byteOffset" : 357084
        },
        {
            "buffer" : 0,
            "byteLength" : 2808,
            "byteOffset" : 359892
        },
        {
            "buffer" : 0,
            "byteLength" : 3744,
            "byteOffset" : 362700
        },
        {
            "buffer" : 0,
            "byteLength" : 1872,
            "byteOffset" : 366444
        },
        {
            "buffer" : 0,
            "byteLength" : 1704,
            "byteOffset" : 368316
        }
    ],
    "buffers" : [
        {
            "byteLength" : 370020,
            "uri" : "bobik.bin"
        }
    ]
}
