{
    "asset" : {
        "generator" : "Khronos glTF Blender I/O v3.2.40",
        "version" : "2.0"
    },
    "scene" : 0,
    "scenes" : [
        {
            "name" : "Scene",
            "nodes" : [
                0,
                1,
                2,
                3
            ]
        }
    ],
    "nodes" : [
        {
            "mesh" : 0,
            "name" : "Cylinder",
            "rotation" : [
                0.7071068286895752,
                0,
                0,
                0.7071068286895752
            ],
            "scale" : [
                2,
                2,
                2
            ]
        },
        {
            "mesh" : 1,
            "name" : "Cube",
            "scale" : [
                2,
                2,
                2
            ]
        },
        {
            "mesh" : 2,
            "name" : "Cylinder.002",
            "scale" : [
                2,
                2,
                2
            ]
        },
        {
            "mesh" : 3,
            "name" : "Cube.001",
            "scale" : [
                2,
                2,
                2
            ]
        }
    ],
    "materials" : [
        {
            "doubleSided" : true,
            "name" : "ship_material",
            "pbrMetallicRoughness" : {
                "baseColorFactor" : [
                    0.3185385465621948,
                    0.3185385465621948,
                    0.3185385465621948,
                    1
                ],
                "metallicFactor" : 0,
                "roughnessFactor" : 0.5
            }
        }
    ],
    "meshes" : [
        {
            "name" : "Cylinder",
            "primitives" : [
                {
                    "attributes" : {
                        "POSITION" : 0,
                        "NORMAL" : 1,
                        "TEXCOORD_0" : 2
                    },
                    "indices" : 3,
                    "material" : 0
                }
            ]
        },
        {
            "name" : "Cube.001",
            "primitives" : [
                {
                    "attributes" : {
                        "POSITION" : 4,
                        "NORMAL" : 5,
                        "TANGENT" : 6,
                        "TEXCOORD_0" : 7
                    },
                    "indices" : 8,
                    "material" : 0
                }
            ]
        },
        {
            "name" : "Cylinder.002",
            "primitives" : [
                {
                    "attributes" : {
                        "POSITION" : 9,
                        "NORMAL" : 10,
                        "TEXCOORD_0" : 11
                    },
                    "indices" : 12,
                    "material" : 0
                }
            ]
        },
        {
            "name" : "Cube.002",
            "primitives" : [
                {
                    "attributes" : {
                        "POSITION" : 13,
                        "NORMAL" : 14,
                        "TANGENT" : 15,
                        "TEXCOORD_0" : 16
                    },
                    "indices" : 17,
                    "material" : 0
                }
            ]
        }
    ],
    "accessors" : [
        {
            "bufferView" : 0,
            "componentType" : 5126,
            "count" : 640,
            "max" : [
                -1.245880365371704,
                1,
                0.5068594217300415
            ],
            "min" : [
                -2.259599208831787,
                -1,
                -0.5068594217300415
            ],
            "type" : "VEC3"
        },
        {
            "bufferView" : 1,
            "componentType" : 5126,
            "count" : 640,
            "type" : "VEC3"
        },
        {
            "bufferView" : 2,
            "componentType" : 5126,
            "count" : 640,
            "type" : "VEC2"
        },
        {
            "bufferView" : 3,
            "componentType" : 5123,
            "count" : 1140,
            "type" : "SCALAR"
        },
        {
            "bufferView" : 4,
            "componentType" : 5126,
            "count" : 158,
            "max" : [
                0,
                1,
                1.9754092693328857
            ],
            "min" : [
                -1,
                -0.7932332158088684,
                -1.6277813911437988
            ],
            "type" : "VEC3"
        },
        {
            "bufferView" : 5,
            "componentType" : 5126,
            "count" : 158,
            "type" : "VEC3"
        },
        {
            "bufferView" : 6,
            "componentType" : 5126,
            "count" : 158,
            "type" : "VEC4"
        },
        {
            "bufferView" : 7,
            "componentType" : 5126,
            "count" : 158,
            "type" : "VEC2"
        },
        {
            "bufferView" : 8,
            "componentType" : 5123,
            "count" : 264,
            "type" : "SCALAR"
        },
        {
            "bufferView" : 9,
            "componentType" : 5126,
            "count" : 676,
            "max" : [
                2.7742984294891357,
                0.4558872580528259,
                0.19655638933181763
            ],
            "min" : [
                2.381185531616211,
                -0.4558872580528259,
                -0.19655635952949524
            ],
            "type" : "VEC3"
        },
        {
            "bufferView" : 10,
            "componentType" : 5126,
            "count" : 676,
            "type" : "VEC3"
        },
        {
            "bufferView" : 11,
            "componentType" : 5126,
            "count" : 676,
            "type" : "VEC2"
        },
        {
            "bufferView" : 12,
            "componentType" : 5123,
            "count" : 1140,
            "type" : "SCALAR"
        },
        {
            "bufferView" : 13,
            "componentType" : 5126,
            "count" : 36,
            "max" : [
                2.8759796619415283,
                0.0186159610748291,
                0.7379062175750732
            ],
            "min" : [
                0,
                -0.0186159610748291,
                -0.7379062175750732
            ],
            "type" : "VEC3"
        },
        {
            "bufferView" : 14,
            "componentType" : 5126,
            "count" : 36,
            "type" : "VEC3"
        },
        {
            "bufferView" : 15,
            "componentType" : 5126,
            "count" : 36,
            "type" : "VEC4"
        },
        {
            "bufferView" : 16,
            "componentType" : 5126,
            "count" : 36,
            "type" : "VEC2"
        },
        {
            "bufferView" : 17,
            "componentType" : 5123,
            "count" : 54,
            "type" : "SCALAR"
        }
    ],
    "bufferViews" : [
        {
            "buffer" : 0,
            "byteLength" : 7680,
            "byteOffset" : 0
        },
        {
            "buffer" : 0,
            "byteLength" : 7680,
            "byteOffset" : 7680
        },
        {
            "buffer" : 0,
            "byteLength" : 5120,
            "byteOffset" : 15360
        },
        {
            "buffer" : 0,
            "byteLength" : 2280,
            "byteOffset" : 20480
        },
        {
            "buffer" : 0,
            "byteLength" : 1896,
            "byteOffset" : 22760
        },
        {
            "buffer" : 0,
            "byteLength" : 1896,
            "byteOffset" : 24656
        },
        {
            "buffer" : 0,
            "byteLength" : 2528,
            "byteOffset" : 26552
        },
        {
            "buffer" : 0,
            "byteLength" : 1264,
            "byteOffset" : 29080
        },
        {
            "buffer" : 0,
            "byteLength" : 528,
            "byteOffset" : 30344
        },
        {
            "buffer" : 0,
            "byteLength" : 8112,
            "byteOffset" : 30872
        },
        {
            "buffer" : 0,
            "byteLength" : 8112,
            "byteOffset" : 38984
        },
        {
            "buffer" : 0,
            "byteLength" : 5408,
            "byteOffset" : 47096
        },
        {
            "buffer" : 0,
            "byteLength" : 2280,
            "byteOffset" : 52504
        },
        {
            "buffer" : 0,
            "byteLength" : 432,
            "byteOffset" : 54784
        },
        {
            "buffer" : 0,
            "byteLength" : 432,
            "byteOffset" : 55216
        },
        {
            "buffer" : 0,
            "byteLength" : 576,
            "byteOffset" : 55648
        },
        {
            "buffer" : 0,
            "byteLength" : 288,
            "byteOffset" : 56224
        },
        {
            "buffer" : 0,
            "byteLength" : 108,
            "byteOffset" : 56512
        }
    ],
    "buffers" : [
        {
            "byteLength" : 56620,
            "uri" : "bobik.bin"
        }
    ]
}
