{
    "asset" : {
        "generator" : "Khronos glTF Blender I/O v3.2.40",
        "version" : "2.0"
    },
    "scene" : 0,
    "scenes" : [
        {
            "name" : "Scene",
            "nodes" : [
                0,
                1,
                2,
                3
            ]
        }
    ],
    "nodes" : [
        {
            "mesh" : 0,
            "name" : "Cylinder",
            "rotation" : [
                0.7071068286895752,
                0,
                0,
                0.7071068286895752
            ],
            "scale" : [
                2,
                2,
                2
            ]
        },
        {
            "mesh" : 1,
            "name" : "Cube",
            "scale" : [
                2,
                2,
                2
            ]
        },
        {
            "mesh" : 2,
            "name" : "Cylinder.002",
            "scale" : [
                2,
                2,
                2
            ]
        },
        {
            "mesh" : 3,
            "name" : "Cube.001",
            "scale" : [
                2,
                2,
                2
            ]
        }
    ],
    "materials" : [
        {
            "doubleSided" : true,
            "name" : "ship_material",
            "pbrMetallicRoughness" : {
                "baseColorFactor" : [
                    0.3185385465621948,
                    0.3185385465621948,
                    0.3185385465621948,
                    1
                ],
                "metallicFactor" : 0,
                "roughnessFactor" : 0.5
            }
        }
    ],
    "meshes" : [
        {
            "name" : "Cylinder",
            "primitives" : [
                {
                    "attributes" : {
                        "POSITION" : 0,
                        "NORMAL" : 1,
                        "TEXCOORD_0" : 2
                    },
                    "indices" : 3,
                    "material" : 0
                }
            ]
        },
        {
            "name" : "Cube.001",
            "primitives" : [
                {
                    "attributes" : {
                        "POSITION" : 4,
                        "NORMAL" : 5,
                        "TEXCOORD_0" : 6
                    },
                    "indices" : 7,
                    "material" : 0
                }
            ]
        },
        {
            "name" : "Cylinder.002",
            "primitives" : [
                {
                    "attributes" : {
                        "POSITION" : 8,
                        "NORMAL" : 9,
                        "TEXCOORD_0" : 10
                    },
                    "indices" : 11,
                    "material" : 0
                }
            ]
        },
        {
            "name" : "Cube.002",
            "primitives" : [
                {
                    "attributes" : {
                        "POSITION" : 12,
                        "NORMAL" : 13,
                        "TANGENT" : 14,
                        "TEXCOORD_0" : 15
                    },
                    "indices" : 16,
                    "material" : 0
                }
            ]
        }
    ],
    "accessors" : [
        {
            "bufferView" : 0,
            "componentType" : 5126,
            "count" : 2159,
            "max" : [
                2.259599208831787,
                1,
                0.5068594217300415
            ],
            "min" : [
                -2.259599208831787,
                -1,
                -0.5068594217300415
            ],
            "type" : "VEC3"
        },
        {
            "bufferView" : 1,
            "componentType" : 5126,
            "count" : 2159,
            "type" : "VEC3"
        },
        {
            "bufferView" : 2,
            "componentType" : 5126,
            "count" : 2159,
            "type" : "VEC2"
        },
        {
            "bufferView" : 3,
            "componentType" : 5123,
            "count" : 9192,
            "type" : "SCALAR"
        },
        {
            "bufferView" : 4,
            "componentType" : 5126,
            "count" : 744,
            "max" : [
                1,
                1,
                1.9754092693328857
            ],
            "min" : [
                -1,
                -0.7932332158088684,
                -1.6277813911437988
            ],
            "type" : "VEC3"
        },
        {
            "bufferView" : 5,
            "componentType" : 5126,
            "count" : 744,
            "type" : "VEC3"
        },
        {
            "bufferView" : 6,
            "componentType" : 5126,
            "count" : 744,
            "type" : "VEC2"
        },
        {
            "bufferView" : 7,
            "componentType" : 5123,
            "count" : 3168,
            "type" : "SCALAR"
        },
        {
            "bufferView" : 8,
            "componentType" : 5126,
            "count" : 2182,
            "max" : [
                2.7742984294891357,
                0.4558872580528259,
                0.19655638933181763
            ],
            "min" : [
                -2.7742984294891357,
                -0.4558872580528259,
                -0.19655635952949524
            ],
            "type" : "VEC3"
        },
        {
            "bufferView" : 9,
            "componentType" : 5126,
            "count" : 2182,
            "type" : "VEC3"
        },
        {
            "bufferView" : 10,
            "componentType" : 5126,
            "count" : 2182,
            "type" : "VEC2"
        },
        {
            "bufferView" : 11,
            "componentType" : 5123,
            "count" : 9192,
            "type" : "SCALAR"
        },
        {
            "bufferView" : 12,
            "componentType" : 5126,
            "count" : 234,
            "max" : [
                2.8759796619415283,
                0.0186159610748291,
                0.7379062175750732
            ],
            "min" : [
                -2.8759796619415283,
                -0.0186159610748291,
                -0.7379062175750732
            ],
            "type" : "VEC3"
        },
        {
            "bufferView" : 13,
            "componentType" : 5126,
            "count" : 234,
            "type" : "VEC3"
        },
        {
            "bufferView" : 14,
            "componentType" : 5126,
            "count" : 234,
            "type" : "VEC4"
        },
        {
            "bufferView" : 15,
            "componentType" : 5126,
            "count" : 234,
            "type" : "VEC2"
        },
        {
            "bufferView" : 16,
            "componentType" : 5123,
            "count" : 852,
            "type" : "SCALAR"
        }
    ],
    "bufferViews" : [
        {
            "buffer" : 0,
            "byteLength" : 25908,
            "byteOffset" : 0
        },
        {
            "buffer" : 0,
            "byteLength" : 25908,
            "byteOffset" : 25908
        },
        {
            "buffer" : 0,
            "byteLength" : 17272,
            "byteOffset" : 51816
        },
        {
            "buffer" : 0,
            "byteLength" : 18384,
            "byteOffset" : 69088
        },
        {
            "buffer" : 0,
            "byteLength" : 8928,
            "byteOffset" : 87472
        },
        {
            "buffer" : 0,
            "byteLength" : 8928,
            "byteOffset" : 96400
        },
        {
            "buffer" : 0,
            "byteLength" : 5952,
            "byteOffset" : 105328
        },
        {
            "buffer" : 0,
            "byteLength" : 6336,
            "byteOffset" : 111280
        },
        {
            "buffer" : 0,
            "byteLength" : 26184,
            "byteOffset" : 117616
        },
        {
            "buffer" : 0,
            "byteLength" : 26184,
            "byteOffset" : 143800
        },
        {
            "buffer" : 0,
            "byteLength" : 17456,
            "byteOffset" : 169984
        },
        {
            "buffer" : 0,
            "byteLength" : 18384,
            "byteOffset" : 187440
        },
        {
            "buffer" : 0,
            "byteLength" : 2808,
            "byteOffset" : 205824
        },
        {
            "buffer" : 0,
            "byteLength" : 2808,
            "byteOffset" : 208632
        },
        {
            "buffer" : 0,
            "byteLength" : 3744,
            "byteOffset" : 211440
        },
        {
            "buffer" : 0,
            "byteLength" : 1872,
            "byteOffset" : 215184
        },
        {
            "buffer" : 0,
            "byteLength" : 1704,
            "byteOffset" : 217056
        }
    ],
    "buffers" : [
        {
            "byteLength" : 218760,
            "uri" : "bobik.bin"
        }
    ]
}
